<?xml version="1.0" standalone="no"?>
<!DOCTYPE svg PUBLIC "-//W3C//DTD SVG 20010904//EN"
 "http://www.w3.org/TR/2001/REC-SVG-20010904/DTD/svg10.dtd">
<svg version="1.0" xmlns="http://www.w3.org/2000/svg"
 width="263.000000pt" height="263.000000pt" viewBox="0 0 263.000000 263.000000"
 preserveAspectRatio="xMidYMid meet">
<metadata>
Created by potrace 1.14, written by Peter Selinger 2001-2017
</metadata>
<g transform="translate(0.000000,263.000000) scale(0.100000,-0.100000)"
fill="#000000" stroke="none">
<path d="M399 2546 c-76 -22 -131 -57 -194 -122 -66 -67 -92 -115 -116 -209
-17 -65 -18 -131 -18 -885 0 -877 0 -876 52 -993 50 -111 190 -223 303 -243
21 -4 417 -9 879 -11 830 -3 840 -3 905 18 78 25 155 69 193 113 65 71 109
142 122 196 2 8 9 30 14 49 7 22 11 318 11 850 0 883 0 879 -55 994 -24 52
-44 77 -112 150 -33 35 -112 83 -152 93 -9 2 -33 8 -55 13 -22 5 -380 9 -870
9 -829 0 -831 0 -907 -22z"/>
</g>
</svg>
